<svg width="24" height="28" viewBox="0 0 24 28" fill="none" xmlns="http://www.w3.org/2000/svg">
    <path d="M12.0001 23.7222C10.6714 23.7222 9.41556 23.467 8.23269 22.9565C7.04982 22.4461 6.01684 21.7494 5.13373 20.8663C4.25063 19.9832 3.55387 18.9502 3.04346 17.7673C2.53304 16.5844 2.27783 15.3286 2.27783 13.9999C2.27783 12.655 2.54114 11.3911 3.06776 10.2083C3.59438 9.02541 4.30735 7.99647 5.20665 7.12147C6.10596 6.24647 7.15515 5.55376 8.35422 5.04335C9.5533 4.53293 10.8334 4.27772 12.1945 4.27772C13.4908 4.27772 14.7142 4.50052 15.8646 4.94613C17.0151 5.39173 18.0238 6.00747 18.8907 6.79335C19.7576 7.57923 20.4462 8.51094 20.9567 9.58849C21.4671 10.666 21.7223 11.8286 21.7223 13.0763C21.7223 14.9398 21.1551 16.3697 20.0209 17.3663C18.8866 18.3628 17.5093 18.8611 15.8889 18.8611H14.0903C13.9445 18.8611 13.8432 18.9016 13.7865 18.9826C13.7298 19.0636 13.7014 19.1527 13.7014 19.2499C13.7014 19.4444 13.823 19.7239 14.066 20.0885C14.3091 20.4531 14.4306 20.8703 14.4306 21.3402C14.4306 22.1504 14.2078 22.7499 13.7622 23.1388C13.3166 23.5277 12.7292 23.7222 12.0001 23.7222ZM6.65283 14.9722C7.07413 14.9722 7.42251 14.8344 7.69797 14.559C7.97343 14.2835 8.11117 13.9351 8.11117 13.5138C8.11117 13.0925 7.97343 12.7442 7.69797 12.4687C7.42251 12.1932 7.07413 12.0555 6.65283 12.0555C6.23154 12.0555 5.88316 12.1932 5.60769 12.4687C5.33223 12.7442 5.1945 13.0925 5.1945 13.5138C5.1945 13.9351 5.33223 14.2835 5.60769 14.559C5.88316 14.8344 6.23154 14.9722 6.65283 14.9722ZM9.5695 11.0833C9.9908 11.0833 10.3392 10.9455 10.6146 10.6701C10.8901 10.3946 11.0278 10.0462 11.0278 9.62495C11.0278 9.20365 10.8901 8.85527 10.6146 8.57981C10.3392 8.30434 9.9908 8.16661 9.5695 8.16661C9.1482 8.16661 8.79982 8.30434 8.52436 8.57981C8.2489 8.85527 8.11117 9.20365 8.11117 9.62495C8.11117 10.0462 8.2489 10.3946 8.52436 10.6701C8.79982 10.9455 9.1482 11.0833 9.5695 11.0833ZM14.4306 11.0833C14.8519 11.0833 15.2003 10.9455 15.4757 10.6701C15.7512 10.3946 15.8889 10.0462 15.8889 9.62495C15.8889 9.20365 15.7512 8.85527 15.4757 8.57981C15.2003 8.30434 14.8519 8.16661 14.4306 8.16661C14.0093 8.16661 13.6609 8.30434 13.3855 8.57981C13.11 8.85527 12.9723 9.20365 12.9723 9.62495C12.9723 10.0462 13.11 10.3946 13.3855 10.6701C13.6609 10.9455 14.0093 11.0833 14.4306 11.0833ZM17.3473 14.9722C17.7686 14.9722 18.117 14.8344 18.3924 14.559C18.6679 14.2835 18.8056 13.9351 18.8056 13.5138C18.8056 13.0925 18.6679 12.7442 18.3924 12.4687C18.117 12.1932 17.7686 12.0555 17.3473 12.0555C16.926 12.0555 16.5776 12.1932 16.3021 12.4687C16.0267 12.7442 15.8889 13.0925 15.8889 13.5138C15.8889 13.9351 16.0267 14.2835 16.3021 14.559C16.5776 14.8344 16.926 14.9722 17.3473 14.9722ZM12.0001 21.7777C12.1459 21.7777 12.2634 21.7372 12.3525 21.6562C12.4416 21.5752 12.4862 21.4699 12.4862 21.3402C12.4862 21.1134 12.3646 20.846 12.1216 20.5381C11.8785 20.2303 11.757 19.7685 11.757 19.1527C11.757 18.4722 11.992 17.9293 12.4619 17.5243C12.9318 17.1192 13.507 16.9166 14.1876 16.9166H15.8889C16.9584 16.9166 17.8739 16.6047 18.6355 15.9808C19.397 15.357 19.7778 14.3888 19.7778 13.0763C19.7778 11.1157 19.0284 9.48316 17.5296 8.17877C16.0307 6.87437 14.2524 6.22217 12.1945 6.22217C9.9908 6.22217 8.11117 6.97564 6.55561 8.48258C5.00005 9.98953 4.22228 11.8286 4.22228 13.9999C4.22228 16.155 4.9798 17.9901 6.49485 19.5052C8.00989 21.0202 9.84496 21.7777 12.0001 21.7777Z" fill="currentColor"/>
</svg>
