<svg width="24" height="28" viewBox="0 0 24 28" fill="none" xmlns="http://www.w3.org/2000/svg">
    <path d="M12.0001 23.7222C10.6551 23.7222 9.39126 23.467 8.20839 22.9566C7.02552 22.4462 5.99658 21.7535 5.12158 20.8785C4.24658 20.0035 3.55387 18.9745 3.04346 17.7917C2.53304 16.6088 2.27783 15.3449 2.27783 14C2.27783 12.6551 2.53304 11.3912 3.04346 10.2083C3.55387 9.02547 4.24658 7.99653 5.12158 7.12153C5.99658 6.24653 7.02552 5.55383 8.20839 5.04341C9.39126 4.53299 10.6551 4.27778 12.0001 4.27778C13.345 4.27778 14.6089 4.53299 15.7917 5.04341C16.9746 5.55383 18.0035 6.24653 18.8785 7.12153C19.7535 7.99653 20.4462 9.02547 20.9567 10.2083C21.4671 11.3912 21.7223 12.6551 21.7223 14C21.7223 15.3449 21.4671 16.6088 20.9567 17.7917C20.4462 18.9745 19.7535 20.0035 18.8785 20.8785C18.0035 21.7535 16.9746 22.4462 15.7917 22.9566C14.6089 23.467 13.345 23.7222 12.0001 23.7222ZM12.0001 21.7778C12.8751 21.7778 13.7176 21.636 14.5278 21.3524C15.338 21.0689 16.0834 20.6597 16.7639 20.125L5.87505 9.23612C5.34033 9.91667 4.93119 10.662 4.64762 11.4722C4.36406 12.2824 4.22228 13.125 4.22228 14C4.22228 16.1713 4.97575 18.0104 6.48269 19.5174C7.98964 21.0243 9.82876 21.7778 12.0001 21.7778ZM18.1251 18.7639C18.6598 18.0833 19.0689 17.338 19.3525 16.5278C19.636 15.7176 19.7778 14.875 19.7778 14C19.7778 11.8287 19.0244 9.98959 17.5174 8.48265C16.0105 6.9757 14.1714 6.22223 12.0001 6.22223C11.1251 6.22223 10.2825 6.36401 9.47228 6.64758C8.66209 6.93114 7.91672 7.34028 7.23617 7.87501L18.1251 18.7639Z" fill="currentColor"/>
</svg>
