<svg width="110" height="110" viewBox="0 0 110 110" fill="none" xmlns="http://www.w3.org/2000/svg">
<rect x="0.0499878" y="13.35" width="64" height="64" rx="32" transform="rotate(-12 0.0499878 13.35)" fill="url(#paint0_linear_2_40)"/>
<path d="M47.4299 39.0606L35.6935 41.5553L35.0698 38.6212L46.8062 36.1266L47.4299 39.0606ZM46.4944 34.6595L28.8898 38.4015L28.2661 35.4674L45.8707 31.7254L46.4944 34.6595ZM45.5589 30.2584L27.9543 34.0003L27.3306 31.0662L44.9352 27.3243L45.5589 30.2584ZM55.7927 49.5497L50.1798 23.1428C50.0083 22.336 49.5741 21.7063 48.8774 21.2538C48.1807 20.8014 47.4289 20.6609 46.622 20.8324L23.1492 25.8217C22.3424 25.9932 21.7127 26.4273 21.2602 27.1241C20.8078 27.8208 20.6673 28.5726 20.8388 29.3795L24.5808 46.984C24.7523 47.7909 25.1864 48.4206 25.8831 48.873C26.5798 49.3255 27.3316 49.466 28.1385 49.2945L48.6772 44.9288L55.7927 49.5497ZM49.3005 41.7297L27.5149 46.3604L23.7729 28.7558L47.2457 23.7665L51.3385 43.0215L49.3005 41.7297Z" fill="white"/>
<rect x="31.19" y="14.56" width="80" height="80" rx="40" transform="rotate(12 31.19 14.56)" fill="url(#paint1_linear_2_40)"/>
<path d="M49.4277 63.4203L65.081 66.7475L65.9128 62.8342L50.2595 59.507L49.4277 63.4203ZM50.6754 57.5503L74.1553 62.5411L74.9871 58.6278L51.5072 53.637L50.6754 57.5503ZM51.9231 51.6804L75.403 56.6712L76.2348 52.7579L52.7549 47.7671L51.9231 51.6804ZM38.2739 77.4099L45.7601 42.1902C45.9889 41.114 46.5679 40.2742 47.4971 39.6707C48.4264 39.0673 49.4291 38.8799 50.5052 39.1087L81.8117 45.7631C82.8878 45.9918 83.7276 46.5708 84.3311 47.5C84.9346 48.4293 85.1219 49.432 84.8932 50.5082L79.9024 73.988C79.6736 75.0642 79.0946 75.904 78.1654 76.5074C77.2361 77.1109 76.2334 77.2982 75.1573 77.0695L47.7641 71.2469L38.2739 77.4099ZM46.9328 66.9801L75.9891 73.1562L80.9799 49.6764L49.6734 43.022L44.2147 68.703L46.9328 66.9801Z" fill="white"/>
<defs>
<linearGradient id="paint0_linear_2_40" x1="0.0499878" y1="13.35" x2="64.05" y2="77.35" gradientUnits="userSpaceOnUse">
<stop stop-color="#2DD4BF"/>
<stop offset="1" stop-color="#22D3EE"/>
</linearGradient>
<linearGradient id="paint1_linear_2_40" x1="31.19" y1="94.56" x2="111.19" y2="14.56" gradientUnits="userSpaceOnUse">
<stop stop-color="#9D4EDD"/>
<stop offset="1" stop-color="#C084FC"/>
</linearGradient>
</defs>
</svg>
