<svg width="24" height="28" viewBox="0 0 24 28" fill="none" xmlns="http://www.w3.org/2000/svg">
    <path d="M12.0001 23.7222C10.6551 23.7222 9.39126 23.467 8.20839 22.9566C7.02552 22.4462 5.99658 21.7494 5.12158 20.8663C4.24658 19.9832 3.55387 18.9502 3.04346 17.7674C2.53304 16.5845 2.27783 15.3287 2.27783 14C2.27783 11.456 3.12042 9.26853 4.80561 7.43751C6.4908 5.60649 8.56487 4.56945 11.0278 4.3264V7.24306C9.35885 7.46991 7.96938 8.21934 6.85943 9.49133C5.74948 10.7633 5.1945 12.2662 5.1945 14C5.1945 15.8796 5.85885 17.4838 7.18755 18.8125C8.51626 20.1412 10.1204 20.8056 12.0001 20.8056C13.0695 20.8056 14.0701 20.5787 15.0018 20.125C15.9335 19.6713 16.7153 19.0556 17.3473 18.2778L19.8751 19.7361C19.0001 20.9514 17.8739 21.9196 16.4966 22.6406C15.1193 23.3617 13.6204 23.7222 12.0001 23.7222ZM20.8959 17.9375L18.3681 16.4792C18.5139 16.0903 18.6233 15.6892 18.6962 15.276C18.7692 14.8629 18.8056 14.4375 18.8056 14C18.8056 12.2662 18.2506 10.7633 17.1407 9.49133C16.0307 8.21934 14.6413 7.46991 12.9723 7.24306V4.3264C15.4352 4.56945 17.5093 5.60649 19.1945 7.43751C20.8797 9.26853 21.7223 11.456 21.7223 14C21.7223 14.713 21.6575 15.4016 21.5278 16.066C21.3982 16.7303 21.1876 17.3542 20.8959 17.9375Z" fill="currentColor"/>
</svg>
